<svg id="Layer_1" data-name="Layer 1" xmlns="http://www.w3.org/2000/svg" xmlns:xlink="http://www.w3.org/1999/xlink" viewBox="0 0 441.68 358.62"><defs><style>.cls-1{fill:none;}.cls-2,.cls-4,.cls-5{isolation:isolate;}.cls-3{clip-path:url(#clip-path);}.cls-4,.cls-5{font-size:73px;font-family:K2D-Regular, K2D;}.cls-4{fill:coral;}</style><clipPath id="clip-path" transform="translate(-2.33)"><polygon class="cls-1" points="372.5 139.4 374.25 125.01 434.79 120.76 433.05 135.16 372.5 139.4"/></clipPath></defs><image class="cls-2" width="960" height="480" transform="scale(0.46)" xlink:href="../../../carFroLogo.png"/><g class="cls-3"><path d="M383.82,130.19l-.41,0-6.69.14.77-4.17,6.68-.15a4.61,4.61,0,0,1,2.51.47,1.35,1.35,0,0,1,.63,1.52,2.22,2.22,0,0,1-1.23,1.55,5.26,5.26,0,0,1-2.26.61m-7.59-5.32a2.38,2.38,0,0,0-.87.22.81.81,0,0,0-.49.53l-2,11,.47,0a4.65,4.65,0,0,0,1.64-.36,1.38,1.38,0,0,0,.87-.95l.66-3.6,6.86-.16a3.77,3.77,0,0,1,2.21.45,1.37,1.37,0,0,1,.5,1.48l-.53,2.9.48,0a4.65,4.65,0,0,0,1.64-.36,1.4,1.4,0,0,0,.88-1l.31-1.72a1.71,1.71,0,0,0-.42-1.53,3.52,3.52,0,0,0-1.85-.91h0q3.18-.9,3.54-2.82a2.24,2.24,0,0,0-1.22-2.46,8.38,8.38,0,0,0-4.37-.84l-8.09.19h-.18" transform="translate(-2.33)"/><path d="M396.93,124.25a4.93,4.93,0,0,0-1.69.37,1.37,1.37,0,0,0-.91,1l-1.95,10.63.48,0a4.89,4.89,0,0,0,1.61-.35,1.42,1.42,0,0,0,.87-1l1.29-7-.56-1.11.24-.06,4.89,8.88a.6.6,0,0,0,.4.31,1.84,1.84,0,0,0,.7.11h.11a1.7,1.7,0,0,0,.58-.14,1.19,1.19,0,0,0,.52-.33l8.2-9.15h.23l-1,1.16-1.28,6.94c-.16.85.67,1.27,2.49,1.22l1.94-10.61a.82.82,0,0,0-.56-1,4.5,4.5,0,0,0-2-.31l-9.43,10.68H402l.7-.8-5.33-9.49-.39,0" transform="translate(-2.33)"/><path d="M420.74,123.71a4.37,4.37,0,0,0-1.6.39,1.45,1.45,0,0,0-.86,1l-2,10.61.46,0a5.13,5.13,0,0,0,1.63-.36,1.33,1.33,0,0,0,.87-1l1.41-7.83-.7-.78.21-.1,9.81,9.75h.25a3.9,3.9,0,0,0,1.5-.37,1.37,1.37,0,0,0,.83-.91l1.72-9.39a.84.84,0,0,0-.51-1,4.65,4.65,0,0,0-2-.28l-1.64,8.92.7.78-.21.11L421,123.82l-.4,0" transform="translate(-2.33)"/></g><g class="cls-2"><text class="cls-4" transform="translate(10.43 233.57)">R</text><text class="cls-5" transform="translate(54.92 233.2)">ent </text><text class="cls-4" transform="translate(182.82 232.58)">M</text><text class="cls-5" transform="translate(238.97 233.2)">e </text><text class="cls-4" transform="translate(296.28 233.2)">N</text><text class="cls-5" transform="translate(343.82 233.2)">ow</text></g></svg>